<svg xmlns="http://www.w3.org/2000/svg" viewBox="0 0 175.44 117.9"><defs><style>.cls-1{fill:#703e89;}.cls-2{fill:#fcea00;}.cls-3{fill:#292421;}.cls-4{fill:#b52d1f;}</style></defs><title>logofin</title><g id="Capa_1" data-name="Capa 1"><path class="cls-1" d="M16.63,33.84A13.53,13.53,0,1,0,30.17,47.37,13.52,13.52,0,0,0,16.63,33.84Zm-.35,4.61a1.74,1.74,0,1,1-1.73,1.74A1.73,1.73,0,0,1,16.28,38.45Zm-8,5.65a.85.85,0,1,1-.86.85A.85.85,0,0,1,8.27,44.1Zm1.89,7.41a.64.64,0,0,1-.63.63H6.6A.64.64,0,0,1,6,51.51V44.6a.51.51,0,1,1,1,0v1.64H9.53a.64.64,0,0,1,.63.64Zm14.71-7.3a1.1,1.1,0,1,1-1.11,1.1A1.1,1.1,0,0,1,24.87,44.21Zm2.44,9.57a.82.82,0,0,1-.82.82H22.71a.82.82,0,0,1-.81-.82V44.86a.66.66,0,1,1,1.33,0V47h3.27a.83.83,0,0,1,.82.82Zm-7.16-.18a1.29,1.29,0,0,1-1.29,1.28h-6a1.29,1.29,0,0,1-1.3-1.28V39.47a1,1,0,1,1,2.09,0v3.36h5.17a1.29,1.29,0,0,1,1.29,1.28Z"/><path class="cls-1" d="M34.17,41.45h2.25v2.13h.06a5.35,5.35,0,0,1,4.69-2.47c1.77,0,3.4.7,4,2.47a5.37,5.37,0,0,1,4.55-2.47c2.89,0,4.83,1.21,4.83,4.21V56H52.13V46.45c0-1.8-.48-3.23-2.81-3.23a3.52,3.52,0,0,0-3.79,3.71v9H43.15V46.45c0-1.88-.59-3.23-2.72-3.23a3.92,3.92,0,0,0-3.87,3.71v9H34.17Z"/><path class="cls-1" d="M63.67,41.11c4.6,0,7,3.34,7,7.61s-2.44,7.58-7,7.58-7-3.34-7-7.58S59.06,41.11,63.67,41.11Zm0,13.08c2.5,0,4.52-2,4.52-5.47s-2-5.5-4.52-5.5-4.52,2-4.52,5.5S61.17,54.2,63.67,54.2Zm.7-18.76h3.06l-3.68,4H62Z"/><path class="cls-1" d="M79.35,56H76.8L71.41,41.45h2.67l4.07,12.1h.06l4-12.1h2.5Z"/><path class="cls-1" d="M88.67,38.84H86.29V35.92h2.39Zm-2.39,2.61h2.39V56H86.29Z"/><path class="cls-1" d="M91.82,35.92H94.2V56H91.82Z"/><path class="cls-2" d="M172.67,48.23a36.26,36.26,0,1,0-36.26,36.26,36.26,36.26,0,0,0,36.26-36.26"/><path class="cls-3" d="M120,46.06a8,8,0,0,0-1.3-2.79,6.59,6.59,0,0,0-2.31-2,7.09,7.09,0,0,0-3.3-.73,7.69,7.69,0,0,0-3.07.6,7.16,7.16,0,0,0-3.93,4.12,8.57,8.57,0,0,0-.54,3.07,8.93,8.93,0,0,0,.52,3.12,7.16,7.16,0,0,0,1.5,2.46,6.57,6.57,0,0,0,2.39,1.6,8.41,8.41,0,0,0,3.13.56,7.71,7.71,0,0,0,4.28-1.15A5.6,5.6,0,0,0,119,53.4,8.46,8.46,0,0,0,120,51.14l.1-.3s.05-.13-.11-.13h-3.79c-.2,0-.22.11-.22.11l0,.13a1.36,1.36,0,0,1-.29.51,3,3,0,0,1-.61.54,3.15,3.15,0,0,1-1.83.52,4.07,4.07,0,0,1-1.34-.2,2.36,2.36,0,0,1-.94-.55,2.44,2.44,0,0,1-.59-1,4.89,4.89,0,0,1-.24-1.18h10c.16,0,.17-.18.17-.18V49.3c0-.25,0-.5,0-.74a10.12,10.12,0,0,0-.31-2.5m-9.28-.94a2.57,2.57,0,0,1,.87-.69,3,3,0,0,1,1.39-.28,3.3,3.3,0,0,1,1.12.17,1.82,1.82,0,0,1,.74.48,3.81,3.81,0,0,1,.8,1.67h-5.51a4.54,4.54,0,0,1,.12-.5,2.5,2.5,0,0,1,.46-.86"/><path class="cls-3" d="M134.47,55.61l-5.36-7.72L134,41s.06-.09-.11-.09h-4.9c-.16,0-.2.09-.2.09l-2.2,3.3L124.34,41a.3.3,0,0,0-.23-.1h-5c-.15,0-.07.1-.07.1l.34.49L123.83,48l-5.23,7.65s-.1.14.08.14h4.91a.31.31,0,0,0,.28-.17l2.64-4,2.64,4a.36.36,0,0,0,.28.17h5c.19,0,.08-.16.08-.16"/><path class="cls-3" d="M140.67,40.9H135c-.2,0-.17.14-.17.14l.81,14.55s0,.18.17.18h4c.17,0,.17-.19.17-.19l.81-14.52s0-.16-.15-.16"/><path class="cls-3" d="M151.44,44.24a.17.17,0,0,0,.15-.18v-3a.14.14,0,0,0-.16-.15h-2.68V36.84a.16.16,0,0,0-.16-.17h-4.31a.15.15,0,0,0-.16.16v4.07H142c-.2,0-.17.13-.17.13v3a.14.14,0,0,0,.15.17h2.2v8a3.94,3.94,0,0,0,.4,1.89,2.9,2.9,0,0,0,1.11,1.16,4.4,4.4,0,0,0,1.55.52,11.89,11.89,0,0,0,1.76.13c.39,0,.78,0,1.19,0a9.62,9.62,0,0,0,1.13-.11l.17,0s.15,0,.15-.19V52.08c0-.18-.15-.12-.15-.12l-.29.06-.53.08c-.19,0-.39,0-.59,0a3.26,3.26,0,0,1-.73-.07.72.72,0,0,1-.32-.15.67.67,0,0,1-.15-.32,3,3,0,0,1-.07-.73V44.24Z"/><path class="cls-3" d="M166.67,45.15a6.82,6.82,0,0,0-4-4.07,9.16,9.16,0,0,0-6.3,0,6.85,6.85,0,0,0-4,4.07,9,9,0,0,0-.54,3.2,8.94,8.94,0,0,0,.54,3.19A7,7,0,0,0,154,54a6.78,6.78,0,0,0,2.42,1.58,9.37,9.37,0,0,0,6.29,0A6.77,6.77,0,0,0,165.11,54a6.93,6.93,0,0,0,1.56-2.46,8.93,8.93,0,0,0,.54-3.19,9,9,0,0,0-.54-3.2m-5.68,7a2.92,2.92,0,0,1-1.47.33,2.84,2.84,0,0,1-1.45-.33,2.62,2.62,0,0,1-.92-.9,4.06,4.06,0,0,1-.51-1.32,7.92,7.92,0,0,1-.16-1.58,8.17,8.17,0,0,1,.16-1.59,3.91,3.91,0,0,1,.51-1.32,2.85,2.85,0,0,1,.93-.9,2.76,2.76,0,0,1,1.45-.34,2.84,2.84,0,0,1,1.46.34,2.74,2.74,0,0,1,.94.9,3.85,3.85,0,0,1,.51,1.32,8,8,0,0,1,.16,1.59,7.79,7.79,0,0,1-.16,1.58,4,4,0,0,1-.51,1.32,2.55,2.55,0,0,1-.93.9"/><path class="cls-4" d="M140.6,59.31a2.77,2.77,0,1,0-2.77,2.77,2.77,2.77,0,0,0,2.77-2.77"/><path class="cls-3" d="M113.67,36.78,111.5,39.5s-.13.16,0,.16h2.57a.48.48,0,0,0,.32-.11l3.64-2.77s.13-.11,0-.11h-4.1a.3.3,0,0,0-.26.11"/><path class="cls-3" d="M170.82,42.36a1.77,1.77,0,0,1-.24.9,1.74,1.74,0,0,1-.67.67,1.8,1.8,0,0,1-1.81,0,1.72,1.72,0,0,1-.66-.67,1.78,1.78,0,0,1-.24-.9,1.83,1.83,0,0,1,.24-.91,1.74,1.74,0,0,1,.66-.66,1.82,1.82,0,0,1,2.48.66,1.83,1.83,0,0,1,.24.91m-.35,0a1.46,1.46,0,1,0-.43,1,1.42,1.42,0,0,0,.43-1m-2.29-1h.87a.78.78,0,0,1,.53.15.54.54,0,0,1,0,.74.71.71,0,0,1-.4.2.67.67,0,0,1,.16.09,1,1,0,0,1,.16.2l.31.56h-.57a4.72,4.72,0,0,0-.38-.66.27.27,0,0,0-.19-.11h-.06v.77h-.49Zm.49.83h.21a.47.47,0,0,0,.3-.07.21.21,0,0,0,.08-.18.21.21,0,0,0-.08-.17.43.43,0,0,0-.27-.07h-.23Z"/><path class="cls-3" d="M111,97.19a2.69,2.69,0,0,0-.81-.68,2.2,2.2,0,0,0-1.06-.26h-.29l-.31,0-.2,0a.32.32,0,0,0,0-.06.31.31,0,0,0-.16-.27.64.64,0,0,0-.74.07.8.8,0,0,0-.28.52q-.2,1-.45,2.29c-.16.84-.32,1.71-.46,2.59s-.27,1.73-.38,2.55a16.31,16.31,0,0,0-.16,2.15c0,.19,0,.44,0,.73s.06.6.1.91a6.43,6.43,0,0,0,.19.87,1.56,1.56,0,0,0,.31.62l.18.16a.44.44,0,0,0,.26.09.42.42,0,0,0,.33-.14.5.5,0,0,0,.12-.34.45.45,0,0,0-.17-.41h0a.92.92,0,0,1-.07-.25c0-.19-.07-.42-.11-.68s-.07-.56-.09-.87,0-.61,0-.89,0-.44,0-.69,0-.52.09-.78.08-.53.13-.79.1-.46.15-.66h.31a4.69,4.69,0,0,0,1.56-.27,4.37,4.37,0,0,0,1.36-.77,3.91,3.91,0,0,0,1-1.22,3.48,3.48,0,0,0,.37-1.6,3.27,3.27,0,0,0-.18-1A3.06,3.06,0,0,0,111,97.19Zm-3.47,4.89c-.15,0-.21-.06-.21-.22a.81.81,0,0,1,0-.12s0-.08,0-.14.05-.35.09-.6l.13-.83q.07-.45.16-.92c.06-.31.12-.61.18-.88s.12-.5.19-.68.13-.29.15-.31a.81.81,0,0,1,.33-.09,3.46,3.46,0,0,1,.57,0,1.29,1.29,0,0,1,1.1.54,1.78,1.78,0,0,1,.27.56,2.42,2.42,0,0,1,.09.67,3.07,3.07,0,0,1-.24,1.22,3,3,0,0,1-.67,1,3.14,3.14,0,0,1-1,.64A3,3,0,0,1,107.49,102.08Z"/><path class="cls-3" d="M117.6,102.6a3.11,3.11,0,0,1-.52-.77,4.8,4.8,0,0,1-.32-.89,6,6,0,0,1-.15-1c0-.33,0-.65,0-1l0-.88a1,1,0,0,0-.08-.4.36.36,0,0,0-.37-.21.39.39,0,0,0-.34.18,1.34,1.34,0,0,0-.17.39c0,.06-.08.19-.17.4s-.21.45-.36.73-.31.57-.48.87-.36.59-.53.84a4.42,4.42,0,0,1-.51.63c-.19.19-.31.23-.37.23a.16.16,0,0,1-.14-.06.46.46,0,0,1-.09-.18,1.17,1.17,0,0,1,0-.22c0-.08,0-.14,0-.19a4.41,4.41,0,0,1,.26-1.42,7.55,7.55,0,0,1,.66-1.43,5.38,5.38,0,0,1,.85-1.1,1.25,1.25,0,0,1,.82-.42.66.66,0,0,1,.22,0l.26.11.25.11c.28.11.42,0,.47-.07a.42.42,0,0,0,.07-.24.61.61,0,0,0-.14-.4,1,1,0,0,0-.34-.26,1.62,1.62,0,0,0-.41-.14,2,2,0,0,0-.36,0,2.2,2.2,0,0,0-1.33.49,4.9,4.9,0,0,0-1.14,1.24,7.22,7.22,0,0,0-.81,1.69,5.88,5.88,0,0,0-.31,1.84,5.22,5.22,0,0,0,0,.58,1.6,1.6,0,0,0,.15.54,1,1,0,0,0,.35.41,1.05,1.05,0,0,0,.61.16,1.38,1.38,0,0,0,.81-.27,3.59,3.59,0,0,0,.7-.67,8.19,8.19,0,0,0,.61-.87l.41-.69c0,.23.09.47.14.7a5.73,5.73,0,0,0,.29.89,3.2,3.2,0,0,0,.45.77,2.09,2.09,0,0,0,.68.56l.14.06.17,0a.45.45,0,0,0,.22-.06.24.24,0,0,0,.13-.22.46.46,0,0,0-.09-.25A1.51,1.51,0,0,0,117.6,102.6Z"/><path class="cls-3" d="M123.36,97.08a.3.3,0,0,0,.17-.29.51.51,0,0,0-.16-.38,1,1,0,0,0-.35-.21,1.78,1.78,0,0,0-.4-.1l-.33,0a2.28,2.28,0,0,0-1.42.46,6.18,6.18,0,0,0-1,1c0-.06,0-.13,0-.2l0-.29a2.09,2.09,0,0,0,0-.21.79.79,0,0,0-.1-.38.41.41,0,0,0-.38-.21.64.64,0,0,0-.42.15.51.51,0,0,0-.2.35s0,.09,0,.22,0,.29,0,.49,0,.42-.08.68-.07.52-.11.8-.09.53-.13.85-.09.65-.13,1-.08.67-.1,1,0,.59,0,.84a1,1,0,0,0,.09.41.39.39,0,0,0,.4.22.42.42,0,0,0,.37-.15.83.83,0,0,0,.13-.39q0-.28.07-.67c0-.25.07-.53.12-.82s.12-.59.2-.9a6.4,6.4,0,0,1,.32-.93,7.84,7.84,0,0,1,.39-.78,4.41,4.41,0,0,1,.56-.77,3.3,3.3,0,0,1,.72-.6,1.57,1.57,0,0,1,.84-.24,1,1,0,0,1,.36.06A.79.79,0,0,0,123.36,97.08Z"/><path class="cls-3" d="M128.53,102.6a3.14,3.14,0,0,1-.52-.77,4.8,4.8,0,0,1-.32-.89,6.05,6.05,0,0,1-.15-1c0-.33,0-.65,0-1l0-.88a1,1,0,0,0-.08-.4.36.36,0,0,0-.37-.21.39.39,0,0,0-.34.18,1.34,1.34,0,0,0-.17.39c0,.06-.08.19-.17.4s-.21.45-.36.73-.31.57-.48.87-.36.59-.53.84a4.48,4.48,0,0,1-.51.63c-.19.19-.31.23-.37.23a.16.16,0,0,1-.14-.06.46.46,0,0,1-.09-.18,1.18,1.18,0,0,1,0-.22c0-.08,0-.14,0-.19a4.39,4.39,0,0,1,.26-1.42,7.47,7.47,0,0,1,.66-1.43,5.38,5.38,0,0,1,.85-1.1,1.25,1.25,0,0,1,.82-.42.66.66,0,0,1,.22,0l.26.11.25.11c.28.11.42,0,.47-.07a.43.43,0,0,0,.07-.24.61.61,0,0,0-.14-.4,1,1,0,0,0-.34-.26,1.62,1.62,0,0,0-.41-.14,2,2,0,0,0-.36,0,2.2,2.2,0,0,0-1.33.49A4.9,4.9,0,0,0,124,97.62a7.22,7.22,0,0,0-.81,1.69,5.88,5.88,0,0,0-.31,1.84,5.25,5.25,0,0,0,0,.58,1.65,1.65,0,0,0,.15.54,1,1,0,0,0,.35.41,1.05,1.05,0,0,0,.61.16,1.37,1.37,0,0,0,.81-.27,3.58,3.58,0,0,0,.7-.67,8.19,8.19,0,0,0,.61-.87l.41-.69c0,.23.08.47.14.7a5.82,5.82,0,0,0,.29.89,3.2,3.2,0,0,0,.45.77,2.09,2.09,0,0,0,.68.56l.14.06.17,0a.45.45,0,0,0,.22-.06.24.24,0,0,0,.13-.22.46.46,0,0,0-.09-.25A1.36,1.36,0,0,0,128.53,102.6Z"/><path class="cls-3" d="M136.53,96.7a.4.4,0,0,0-.14-.32.88.88,0,0,0-.32-.17,2.29,2.29,0,0,0-.41-.08l-.41,0a3.75,3.75,0,0,0-1,.14,3,3,0,0,0-.92.43,2.32,2.32,0,0,0-.66.73,2,2,0,0,0-.26,1,1.33,1.33,0,0,0,.2.74,2.28,2.28,0,0,0,.48.53,5,5,0,0,0,.61.42l.6.37a2.36,2.36,0,0,1,.45.39.64.64,0,0,1,.17.44.88.88,0,0,1-.27.59,3.16,3.16,0,0,1-.67.54,3.86,3.86,0,0,1-.79.38,2.1,2.1,0,0,1-.63.14h-.19a.93.93,0,0,0-.4.09.44.44,0,0,0-.22.44.36.36,0,0,0,.23.35,1,1,0,0,0,.38.09,3.58,3.58,0,0,0,1.13-.21,5.13,5.13,0,0,0,1.15-.56,3.76,3.76,0,0,0,.91-.82,1.59,1.59,0,0,0,.38-1,1.51,1.51,0,0,0-.2-.79,2.22,2.22,0,0,0-.49-.57,4.84,4.84,0,0,0-.62-.44l-.61-.38a2.53,2.53,0,0,1-.46-.38.61.61,0,0,1-.17-.43,1,1,0,0,1,.17-.55,1.49,1.49,0,0,1,.42-.42,2.13,2.13,0,0,1,.57-.26,2.18,2.18,0,0,1,.59-.09,2,2,0,0,1,.46.06,2,2,0,0,0,.46.07.4.4,0,0,0,.18,0,.5.5,0,0,0,.24-.21A.56.56,0,0,0,136.53,96.7Z"/><path class="cls-3" d="M141.07,101.06a.5.5,0,0,0-.21.05,1,1,0,0,0-.19.12,4.24,4.24,0,0,1-1.09.62,3.54,3.54,0,0,1-1.24.21.87.87,0,0,1-.69-.22,1,1,0,0,1-.19-.64s0-.09,0-.17,0-.16,0-.25a2,2,0,0,1,0-.22v0a2.6,2.6,0,0,0,1.17-.29,3.8,3.8,0,0,0,1-.75,3.69,3.69,0,0,0,.71-1,2.85,2.85,0,0,0,.26-1.18,1,1,0,0,0-.3-.81,1.09,1.09,0,0,0-.73-.25,1.83,1.83,0,0,0-1,.39,4.86,4.86,0,0,0-1.07,1,6.38,6.38,0,0,0-.87,1.58,5.37,5.37,0,0,0-.36,2,2,2,0,0,0,.45,1.37,1.74,1.74,0,0,0,1.33.49,4,4,0,0,0,1.39-.25,4.63,4.63,0,0,0,1.23-.68,1.93,1.93,0,0,0,.26-.25,1.68,1.68,0,0,0,.17-.24.54.54,0,0,0,.08-.28C141.31,101.09,141.15,101.06,141.07,101.06Zm-3.26-1.56a3.43,3.43,0,0,1,.37-.68,8.54,8.54,0,0,1,.56-.73,7.11,7.11,0,0,1,.52-.55l.28-.25a.22.22,0,0,1,.14,0s0,0,0,.1a1.63,1.63,0,0,1-.2.74,3,3,0,0,1-.5.7,2.89,2.89,0,0,1-.66.52A1.45,1.45,0,0,1,137.82,99.5Z"/><path class="cls-3" d="M151.46,95.51a2.46,2.46,0,0,0-.32.17,5.17,5.17,0,0,0-.87.85,13.28,13.28,0,0,0-.91,1.23c-.19.27-.37.56-.53.84s-.31.58-.46.86-.27.55-.38.8l-.2.44c-.1-.6-.2-1.26-.29-1.94l-.3-2.26A1.07,1.07,0,0,0,147,96a.45.45,0,0,0-.4-.21.39.39,0,0,0-.35.18.66.66,0,0,0-.06.13l-.18,0-.33,0a2.29,2.29,0,0,0-1.42.46,6.17,6.17,0,0,0-1,1c0-.06,0-.13,0-.2l0-.29c0-.1,0-.17,0-.21a.8.8,0,0,0-.1-.38.41.41,0,0,0-.38-.21.64.64,0,0,0-.42.15.51.51,0,0,0-.2.35s0,.09,0,.22,0,.29,0,.49,0,.42-.08.68-.07.52-.11.8-.09.53-.13.85-.09.65-.13,1-.08.67-.1,1,0,.59,0,.84a1,1,0,0,0,.09.41.39.39,0,0,0,.4.22.42.42,0,0,0,.37-.15.83.83,0,0,0,.13-.39c0-.19,0-.41.07-.67s.06-.53.12-.82.12-.59.2-.9a6.55,6.55,0,0,1,.33-.93,7.89,7.89,0,0,1,.4-.78,4.36,4.36,0,0,1,.56-.77,3.33,3.33,0,0,1,.72-.6,1.58,1.58,0,0,1,.84-.24,1,1,0,0,1,.36.06l.08,0c0,.09,0,.18,0,.28,0,.47.11,1,.18,1.58s.15,1.21.24,1.86.18,1.25.28,1.82a.76.76,0,0,0,.12.26.36.36,0,0,0,.31.14.82.82,0,0,0,.35-.08.68.68,0,0,0,.3-.41,19.25,19.25,0,0,1,.82-2,18.41,18.41,0,0,1,1.11-2,12.59,12.59,0,0,1,.93-1.28,9.88,9.88,0,0,1,1-1.08l.17-.2a.45.45,0,0,0,.1-.28.31.31,0,0,0-.13-.29A.74.74,0,0,0,151.46,95.51Z"/><path class="cls-3" d="M153.48,94.58a.63.63,0,0,0-.48.24.82.82,0,0,0-.21.56,1.26,1.26,0,0,0,.12.56.47.47,0,0,0,.42.28h0a.64.64,0,0,0,.48-.23.8.8,0,0,0,.21-.57,1.4,1.4,0,0,0-.11-.57A.45.45,0,0,0,153.48,94.58Z"/><path class="cls-3" d="M153.29,97.22c-.44,0-.53.27-.53.5v.18a6.18,6.18,0,0,1-.09.67q-.08.43-.16,1c-.06.35-.11.73-.16,1.12a9.93,9.93,0,0,0-.07,1.18c0,.12,0,.27,0,.44a2.85,2.85,0,0,0,.08.53,1.49,1.49,0,0,0,.19.45.44.44,0,0,0,.38.21.52.52,0,0,0,.21-.05.25.25,0,0,0,.15-.24.85.85,0,0,0-.05-.28.66.66,0,0,1,0-.22c0-.08,0-.22,0-.42s0-.43.06-.68.05-.51.09-.77.07-.49.11-.68l.23-1.08a5,5,0,0,0,.13-1C153.85,97.36,153.54,97.22,153.29,97.22Z"/><path class="cls-3" d="M163.84,96.69a.43.43,0,0,0-.11-.28.44.44,0,0,0-.35-.14h-1.48l.5-1.61.53-1.72a.92.92,0,0,0,.05-.29.65.65,0,0,0-.13-.38.51.51,0,0,0-.44-.2.48.48,0,0,0-.38.16,1.19,1.19,0,0,0-.21.36c-.21.61-.41,1.23-.6,1.86s-.35,1.21-.5,1.82l-.66,0-.55,0h-.1a1.08,1.08,0,0,0-.25-.14,1.78,1.78,0,0,0-.4-.1l-.33,0a2.29,2.29,0,0,0-1.42.46,6.21,6.21,0,0,0-1,1c0-.06,0-.13,0-.2l0-.29c0-.1,0-.17,0-.21a.79.79,0,0,0-.1-.38.4.4,0,0,0-.38-.21.63.63,0,0,0-.42.15.52.52,0,0,0-.2.35s0,.09,0,.22,0,.29,0,.49,0,.42-.08.68-.07.52-.11.8-.09.53-.13.85-.09.65-.13,1-.08.67-.1,1,0,.59,0,.84a1,1,0,0,0,.08.41.39.39,0,0,0,.4.22.43.43,0,0,0,.37-.15.85.85,0,0,0,.13-.39c0-.19,0-.41.07-.67s.07-.53.12-.82.12-.59.2-.9a6.66,6.66,0,0,1,.32-.93,7.91,7.91,0,0,1,.4-.78,4.36,4.36,0,0,1,.56-.77,3.33,3.33,0,0,1,.72-.6,1.58,1.58,0,0,1,.84-.24h.17a.4.4,0,0,0,.22.12,2.81,2.81,0,0,0,.6.06h1a11.18,11.18,0,0,0-.45,1.93,13.56,13.56,0,0,0-.13,1.8,8.36,8.36,0,0,0,.13,1.65c.09.43.14.68.16.74a.4.4,0,0,0,0,.14l.09.23a2.31,2.31,0,0,0,.15.29,1.8,1.8,0,0,0,.21.29.52.52,0,0,0,.35.21c.23,0,.3-.11.32-.21a1.15,1.15,0,0,0,0-.21,1,1,0,0,0,0-.28,2.25,2.25,0,0,0-.1-.28,5.51,5.51,0,0,1-.24-.92,7.23,7.23,0,0,1-.1-1.29V101c0-.1,0-.21,0-.32s0-.43.08-.78.1-.7.16-1.07.14-.72.22-1a2.53,2.53,0,0,1,.21-.62l.19,0h1.54C163.74,97.15,163.84,96.9,163.84,96.69Z"/><path class="cls-3" d="M167.74,101.06a.5.5,0,0,0-.21.05,1,1,0,0,0-.19.12,4.24,4.24,0,0,1-1.09.62,3.54,3.54,0,0,1-1.24.21.86.86,0,0,1-.69-.22,1,1,0,0,1-.19-.64s0-.09,0-.17,0-.16,0-.25a1.81,1.81,0,0,1,0-.22v0a2.6,2.6,0,0,0,1.17-.29,3.82,3.82,0,0,0,1-.75,3.69,3.69,0,0,0,.71-1,2.85,2.85,0,0,0,.26-1.18,1,1,0,0,0-.3-.81,1.09,1.09,0,0,0-.73-.25,1.83,1.83,0,0,0-1,.39,4.86,4.86,0,0,0-1.07,1,6.34,6.34,0,0,0-.87,1.58,5.37,5.37,0,0,0-.36,2,2,2,0,0,0,.45,1.37,1.74,1.74,0,0,0,1.33.49,4,4,0,0,0,1.39-.25,4.61,4.61,0,0,0,1.23-.68,1.82,1.82,0,0,0,.26-.25,1.62,1.62,0,0,0,.17-.24.54.54,0,0,0,.08-.28C168,101.09,167.81,101.06,167.74,101.06Zm-3.25-1.56a3.37,3.37,0,0,1,.37-.68,8.51,8.51,0,0,1,.56-.73,7.12,7.12,0,0,1,.52-.55l.28-.25a.21.21,0,0,1,.14,0s0,0,0,.1a1.64,1.64,0,0,1-.2.74,3,3,0,0,1-.5.7,2.9,2.9,0,0,1-.66.52A1.44,1.44,0,0,1,164.48,99.5Z"/></g></svg>