<svg xmlns="http://www.w3.org/2000/svg" viewBox="0 0 372.56 39"><defs><style>.cls-1,.cls-2{fill:#703e89;}.cls-2{font-size:10.58px;font-family:HelveticaNeueLTStd-Md, Helvetica Neue LT Std;}.cls-3{letter-spacing:0.17em;}.cls-4{font-family:HelveticaNeueLTStd-Hv, Helvetica Neue LT Std;}</style></defs><title>redes</title><g id="Capa_1" data-name="Capa 1"><path class="cls-1" d="M195.15,8.6a10,10,0,1,0,10.05,10,10.06,10.06,0,0,0-10.05-10Zm2.5,10.4H196v5.83h-2.42V19h-1.15V16.94h1.15V15.61A2.27,2.27,0,0,1,196,13.17h1.79v2h-1.3a.49.49,0,0,0-.51.56v1.21h1.85Zm0,0"/><path class="cls-1" d="M225.46,8.6a10,10,0,1,0,10.05,10,10.06,10.06,0,0,0-10.05-10Zm4.48,7.75c0,.1,0,.2,0,.3a6.58,6.58,0,0,1-10.13,5.54,4.65,4.65,0,0,0,3.42-1,2.32,2.32,0,0,1-2.16-1.61,2.22,2.22,0,0,0,.43,0,2.29,2.29,0,0,0,.61-.08,2.31,2.31,0,0,1-1.86-2.27.15.15,0,0,1,0,0,2.28,2.28,0,0,0,1,.29,2.31,2.31,0,0,1-.72-3.09,6.57,6.57,0,0,0,4.77,2.42,2.31,2.31,0,0,1,3.94-2.11,4.57,4.57,0,0,0,1.47-.56,2.32,2.32,0,0,1-1,1.28,4.58,4.58,0,0,0,1.33-.36,4.7,4.7,0,0,1-1.15,1.2Zm0,0"/><path class="cls-1" d="M275.54,12.73A9.73,9.73,0,0,0,268.82,9a.37.37,0,1,0-.08.73,8.86,8.86,0,0,1,7.89,10.34.37.37,0,0,0,.3.42h0a.37.37,0,0,0,.41-.31,9.75,9.75,0,0,0-1.82-7.46Zm0,0"/><path class="cls-1" d="M274.74,20.2h0a.37.37,0,0,0,.41-.3,7.59,7.59,0,0,0-1.39-5.83,7.74,7.74,0,0,0-5.25-2.88.37.37,0,0,0-.09.73h0a7,7,0,0,1,4.75,2.6,6.85,6.85,0,0,1,1.25,5.26.37.37,0,0,0,.3.42Zm0,0"/><path class="cls-1" d="M268.14,14.11a5,5,0,0,1,3.29,1.75,5,5,0,0,1,.81,3.64.37.37,0,0,0,.73.1,5.7,5.7,0,0,0-1-4.18,5.7,5.7,0,0,0-3.78-2,.37.37,0,1,0-.1.73Zm0,0"/><path class="cls-1" d="M275.45,23l-.11-.14c-.88-1.12-1.62-1.7-2.26-1.78a2.57,2.57,0,0,0-1.64.69l-.6.38-.21.08a2.06,2.06,0,0,1-1.75-.3,27.9,27.9,0,0,1-2.2-2.37,25.7,25.7,0,0,1-1.8-2.69,2,2,0,0,1,.13-1.72l.13-.18.53-.49,0,0h0a2.5,2.5,0,0,0,1-1.36,4,4,0,0,0-1.2-2.6l-.11-.14c-.55-.7-1.38-1.77-2.57-1.59a3.28,3.28,0,0,0-1.32.5h0l-.6.45h0l-.21.18c-.61.54-1.93,2.12-1,5a22.32,22.32,0,0,0,3.47,6.37h0l.94,1.17h0a22.62,22.62,0,0,0,5.42,4.87,5.76,5.76,0,0,0,3,.91,4.14,4.14,0,0,0,2.24-.64l.24-.16.07-.07.53-.4,0,0h0a3.18,3.18,0,0,0,.83-1.14c.47-1.1-.37-2.15-.93-2.85Z"/><path class="cls-1" d="M13.8,23.64H11.51l-1.45-5.95h0L8.65,23.64H6.34L3.76,14.77H6.12l1.49,6h0l1.35-6h2.17l1.38,6h0l1.49-6h2.29Z"/><path class="cls-1" d="M27.09,23.64H24.8l-1.45-5.95h0l-1.38,5.95H19.63l-2.58-8.87h2.36l1.49,6h0l1.35-6h2.17l1.38,6h0l1.49-6h2.29Z"/><path class="cls-1" d="M40.38,23.64H38.08l-1.45-5.95h0l-1.38,5.95H32.91l-2.58-8.87h2.36l1.49,6h0l1.35-6h2.17l1.38,6h0l1.49-6h2.29Z"/><path class="cls-1" d="M44.47,21h2.47v2.64H44.47Z"/><path class="cls-1" d="M49.31,14.77h2.1V16h0a2.87,2.87,0,0,1,2.48-1.44A2.37,2.37,0,0,1,56.3,16a2.9,2.9,0,0,1,2.45-1.47c1.73,0,3,.87,3,3.17v5.93H59.49v-5c0-1.18-.09-2.16-1.37-2.16s-1.49,1.13-1.49,2.25v4.94H54.4v-5c0-1,.06-2.21-1.35-2.21-.44,0-1.51.31-1.51,2v5.14H49.31Z"/><path class="cls-1" d="M67.92,14.53c2.56,0,4.21,1.85,4.21,4.68s-1.65,4.66-4.21,4.66S63.73,22,63.73,19.21,65.38,14.53,67.92,14.53Zm0,7.51c1.52,0,2-1.42,2-2.83s-.46-2.85-2-2.85-2,1.42-2,2.85S66.42,22,67.92,22Z"/><path class="cls-1" d="M78.57,23.64H76.09l-2.78-8.87h2.34l1.71,6.05h0l1.71-6.05h2.22Z"/><path class="cls-1" d="M85,13.4H82.81v-2H85Zm-2.23,1.37H85v8.87H82.81Z"/><path class="cls-1" d="M87.37,11.39H89.6V23.64H87.37Z"/><path class="cls-1" d="M93.7,19.8c.06,1.54.75,2.25,2,2.25a1.83,1.83,0,0,0,1.76-1.15h2a3.69,3.69,0,0,1-3.8,3c-2.56,0-4.15-1.92-4.15-4.66s1.68-4.68,4.15-4.68c2.76,0,4.1,2.54,3.94,5.26Zm3.63-1.54c-.2-1.23-.69-1.89-1.78-1.89a1.84,1.84,0,0,0-1.85,1.89Z"/><path class="cls-1" d="M103.45,19l-2.67-4.2h2.54l1.43,2.31,1.41-2.31h2.47L106,18.92l3,4.72h-2.55l-1.7-2.79L103,23.64h-2.5Z"/><path class="cls-1" d="M112.61,13.4h-2.23v-2h2.23Zm-2.23,1.37h2.23v8.87h-2.23Z"/><path class="cls-1" d="M117.7,14.77h1.63V16.4H117.7v4.39c0,.82.19,1,.94,1a3.11,3.11,0,0,0,.69-.07v1.9a7.83,7.83,0,0,1-1.3.09c-1.37,0-2.56-.34-2.56-2.11V16.4h-1.35V14.77h1.35V12.11h2.23Z"/><path class="cls-1" d="M124.84,14.53c2.56,0,4.21,1.85,4.21,4.68s-1.65,4.66-4.21,4.66-4.19-1.85-4.19-4.66S122.3,14.53,124.84,14.53Zm0,7.51c1.52,0,2-1.42,2-2.83s-.46-2.85-2-2.85-2,1.42-2,2.85S123.34,22,124.84,22Z"/><path class="cls-1" d="M131.09,21h2.47v2.64h-2.47Z"/><path class="cls-1" d="M141.4,17.89a1.57,1.57,0,0,0-1.65-1.52c-1.43,0-1.9,1.58-1.9,2.88S138.3,22,139.7,22c1,0,1.63-.72,1.77-1.8h2.15a3.74,3.74,0,0,1-3.91,3.63c-2.45,0-4.1-1.89-4.1-4.54s1.51-4.8,4.15-4.8a3.54,3.54,0,0,1,3.82,3.36Z"/><path class="cls-1" d="M149.33,14.53c2.56,0,4.21,1.85,4.21,4.68s-1.65,4.66-4.21,4.66-4.19-1.85-4.19-4.66S146.78,14.53,149.33,14.53Zm0,7.51c1.52,0,2-1.42,2-2.83s-.46-2.85-2-2.85-2,1.42-2,2.85S147.82,22,149.33,22Z"/><path class="cls-1" d="M155.55,14.77h2.1V16h0a2.87,2.87,0,0,1,2.48-1.44A2.37,2.37,0,0,1,162.54,16,2.9,2.9,0,0,1,165,14.53c1.73,0,3,.87,3,3.17v5.93h-2.23v-5c0-1.18-.09-2.16-1.37-2.16s-1.49,1.13-1.49,2.25v4.94h-2.23v-5c0-1,.06-2.21-1.35-2.21-.44,0-1.51.31-1.51,2v5.14h-2.23Z"/><text class="cls-2" transform="translate(284.04 16.64) scale(0.92 1)"><tspan class="cls-3">Línea gratuita</tspan><tspan class="cls-4"><tspan x="0" y="10.7">01 8000 517 677</tspan></tspan></text><path class="cls-1" d="M247.51,28.68a.53.53,0,0,1-.53-.53V9A.53.53,0,1,1,248,9V28.15A.53.53,0,0,1,247.51,28.68Z"/></g></svg>